# xmcd
#
# Track frame offsets:
#	150
#	24540
#	42512
#
# Disc length: 851 seconds
#
# Revision: 1
# Processed by: cddbd v1.5PL3 Copyright (c) Steve Scherf et al.
# Submitted via: CDex 1.50Beta5
#
DISCID=1f035103
DTITLE=野田順子 - Get it
DYEAR=1900
DGENRE=Soundtrack
TTITLE0=Get it!
TTITLE1=想い・・・。
TTITLE2=開戦前夜
EXTD=
EXTT0=
EXTT1=
EXTT2=
PLAYORDER=
